<svg width="1356" height="320" viewBox="0 0 1356 320" fill="none" xmlns="http://www.w3.org/2000/svg">
<path d="M59.871 0H284.903V45.4194L348.903 45.4194L335.484 90.8387H324.129V274.581C329.83 274.581 334.452 279.202 334.452 284.903V297.29H336.516C342.217 297.29 346.839 301.912 346.839 307.613V320H284.903H231.226H117.677H92.9032H59.871H2.06451V307.613C2.06451 301.912 6.68609 297.29 12.3871 297.29H14.4516V284.903C14.4516 279.202 19.0732 274.581 24.7742 274.581V90.8387H13.4194L0 45.4194L59.871 45.4194V0Z" fill="#4705ED"/>
<path d="M44.9244 170.879C45.2827 170.536 45.7105 170.131 46.2058 169.668C47.9479 168.043 50.5242 165.714 53.8462 162.917C60.4919 157.32 70.1125 149.855 81.9992 142.391C105.802 127.444 138.536 112.599 174.586 112.599C210.637 112.599 243.371 127.444 267.174 142.391C279.06 149.855 288.681 157.32 295.327 162.917C298.649 165.714 301.225 168.043 302.967 169.668C303.462 170.131 303.89 170.536 304.248 170.879C303.89 171.222 303.462 171.627 302.967 172.089C301.225 173.715 298.649 176.043 295.327 178.841C288.681 184.437 279.06 191.902 267.174 199.367C243.371 214.313 210.637 229.159 174.586 229.159C138.536 229.159 105.802 214.313 81.9992 199.367C70.1125 191.902 60.4919 184.437 53.8462 178.841C50.5242 176.043 47.9479 173.715 46.2058 172.089C45.7105 171.627 45.2827 171.222 44.9244 170.879Z" fill="white" stroke="white" stroke-width="3.76"/>
<mask id="path-3-outside-1_266_936" maskUnits="userSpaceOnUse" x="113.426" y="109.719" width="123" height="123" fill="black">
<rect fill="white" x="113.426" y="109.719" width="123" height="123"/>
<path fill-rule="evenodd" clip-rule="evenodd" d="M234.746 170.879C234.746 137.653 207.811 110.719 174.586 110.719C141.36 110.719 114.426 137.653 114.426 170.879C114.426 204.104 141.36 231.039 174.586 231.039C207.811 231.039 234.746 204.104 234.746 170.879ZM167.066 170.879C167.066 197.28 169.192 219.709 172.149 227.809C171.59 227.23 170.987 226.432 170.35 225.354C168.683 222.533 167.116 218.326 165.775 212.962C163.1 202.264 161.426 187.384 161.426 170.879C161.426 154.373 163.1 139.494 165.775 128.795C167.116 123.431 168.683 119.224 170.35 116.403C170.987 115.326 171.59 114.527 172.149 113.948C169.192 122.048 167.066 144.477 167.066 170.879ZM178.822 225.354C178.185 226.432 177.581 227.23 177.023 227.809C179.98 219.709 182.106 197.28 182.106 170.879C182.106 144.477 179.98 122.048 177.023 113.948C177.581 114.527 178.185 115.326 178.822 116.403C180.489 119.224 182.056 123.431 183.397 128.795C186.071 139.494 187.746 154.373 187.746 170.879C187.746 187.384 186.071 202.264 183.397 212.962C182.056 218.326 180.489 222.533 178.822 225.354ZM169.094 226.901C168.467 226.383 167.839 225.772 167.211 225.064C164.719 222.253 162.389 218.078 160.394 212.758C156.409 202.132 153.906 187.326 153.906 170.879C153.906 154.432 156.409 139.626 160.394 128.999C162.389 123.679 164.719 119.505 167.211 116.694C167.839 115.985 168.467 115.374 169.094 114.856C163.504 123.631 159.546 145.406 159.546 170.879C159.546 196.351 163.504 218.126 169.094 226.901ZM180.078 226.901C180.704 226.383 181.332 225.772 181.96 225.064C184.453 222.253 186.783 218.078 188.778 212.758C192.763 202.132 195.266 187.326 195.266 170.879C195.266 154.432 192.763 139.626 188.778 128.999C186.783 123.679 184.453 119.505 181.96 116.694C181.332 115.985 180.704 115.374 180.078 114.856C185.668 123.631 189.626 145.406 189.626 170.879C189.626 196.351 185.668 218.126 180.078 226.901ZM154.998 212.578C158.051 218.685 161.657 223.227 165.532 225.998C157.58 216.696 152.026 195.517 152.026 170.879C152.026 146.24 157.58 125.061 165.532 115.76C161.657 118.531 158.051 123.073 154.998 129.18C149.71 139.754 146.386 154.495 146.386 170.879C146.386 187.263 149.71 202.003 154.998 212.578ZM194.174 212.578C191.121 218.685 187.515 223.227 183.64 225.998C191.592 216.696 197.146 195.517 197.146 170.879C197.146 146.24 191.592 125.061 183.64 115.76C187.515 118.531 191.121 123.073 194.174 129.18C199.461 139.754 202.786 154.495 202.786 170.879C202.786 187.263 199.461 202.003 194.174 212.578ZM161.561 225.122C157.108 222.255 153.04 217.938 149.593 212.422C143.003 201.878 138.866 187.195 138.866 170.879C138.866 154.562 143.003 139.879 149.593 129.336C153.04 123.82 157.108 119.503 161.561 116.636C151.47 126.345 144.506 146.985 144.506 170.879C144.506 194.772 151.47 215.412 161.561 225.122ZM187.611 225.122C192.063 222.255 196.131 217.938 199.579 212.422C206.168 201.878 210.306 187.195 210.306 170.879C210.306 154.562 206.168 139.879 199.579 129.336C196.131 123.82 192.063 119.503 187.611 116.636C197.701 126.345 204.666 146.985 204.666 170.879C204.666 194.772 197.701 215.412 187.611 225.122ZM144.185 212.29C147.949 217.309 152.365 221.375 157.226 224.257C145.198 214.222 136.986 194.085 136.986 170.879C136.986 147.673 145.198 127.535 157.226 117.501C152.365 120.382 147.949 124.449 144.185 129.467C136.287 139.998 131.346 154.633 131.346 170.879C131.346 187.124 136.287 201.759 144.185 212.29ZM204.986 212.29C201.223 217.309 196.807 221.375 191.945 224.257C203.974 214.222 212.186 194.085 212.186 170.879C212.186 147.673 203.974 127.535 191.945 117.501C196.807 120.382 201.223 124.449 204.986 129.467C212.885 139.998 217.826 154.633 217.826 170.879C217.826 187.124 212.885 201.759 204.986 212.29ZM152.518 223.364C135.609 213.972 123.826 194.115 123.826 170.879C123.826 147.643 135.609 127.786 152.517 118.393C138.76 128.699 129.466 148.341 129.466 170.879C129.466 193.416 138.76 213.059 152.518 223.364ZM196.654 223.364C213.563 213.972 225.346 194.115 225.346 170.879C225.346 147.643 213.563 127.785 196.654 118.393C210.411 128.699 219.706 148.342 219.706 170.879C219.706 193.416 210.411 213.059 196.654 223.364ZM116.306 170.879C116.306 193.341 129.014 212.836 147.633 222.565C132.248 212.064 121.946 192.847 121.946 170.879C121.946 148.911 132.248 129.693 147.633 119.192C129.014 128.921 116.306 148.416 116.306 170.879ZM232.866 170.879C232.866 193.341 220.158 212.836 201.539 222.565C216.923 212.064 227.226 192.847 227.226 170.879C227.226 148.911 216.923 129.693 201.539 119.192C220.158 128.921 232.866 148.416 232.866 170.879ZM178.038 213.185C179.386 202.397 180.226 187.439 180.226 170.879C180.226 154.319 179.386 139.36 178.038 128.572C177.362 123.165 176.567 118.878 175.71 115.979C175.648 115.77 175.587 115.571 175.526 115.381V226.377C175.587 226.187 175.648 225.987 175.71 225.778C176.567 222.879 177.362 218.592 178.038 213.185ZM173.646 115.381V226.377C173.585 226.187 173.523 225.987 173.462 225.778C172.605 222.879 171.81 218.592 171.134 213.185C169.785 202.397 168.946 187.439 168.946 170.879C168.946 154.319 169.785 139.36 171.134 128.572C171.81 123.165 172.605 118.878 173.462 115.979C173.523 115.77 173.585 115.571 173.646 115.381Z"/>
</mask>
<path fill-rule="evenodd" clip-rule="evenodd" d="M234.746 170.879C234.746 137.653 207.811 110.719 174.586 110.719C141.36 110.719 114.426 137.653 114.426 170.879C114.426 204.104 141.36 231.039 174.586 231.039C207.811 231.039 234.746 204.104 234.746 170.879ZM167.066 170.879C167.066 197.28 169.192 219.709 172.149 227.809C171.59 227.23 170.987 226.432 170.35 225.354C168.683 222.533 167.116 218.326 165.775 212.962C163.1 202.264 161.426 187.384 161.426 170.879C161.426 154.373 163.1 139.494 165.775 128.795C167.116 123.431 168.683 119.224 170.35 116.403C170.987 115.326 171.59 114.527 172.149 113.948C169.192 122.048 167.066 144.477 167.066 170.879ZM178.822 225.354C178.185 226.432 177.581 227.23 177.023 227.809C179.98 219.709 182.106 197.28 182.106 170.879C182.106 144.477 179.98 122.048 177.023 113.948C177.581 114.527 178.185 115.326 178.822 116.403C180.489 119.224 182.056 123.431 183.397 128.795C186.071 139.494 187.746 154.373 187.746 170.879C187.746 187.384 186.071 202.264 183.397 212.962C182.056 218.326 180.489 222.533 178.822 225.354ZM169.094 226.901C168.467 226.383 167.839 225.772 167.211 225.064C164.719 222.253 162.389 218.078 160.394 212.758C156.409 202.132 153.906 187.326 153.906 170.879C153.906 154.432 156.409 139.626 160.394 128.999C162.389 123.679 164.719 119.505 167.211 116.694C167.839 115.985 168.467 115.374 169.094 114.856C163.504 123.631 159.546 145.406 159.546 170.879C159.546 196.351 163.504 218.126 169.094 226.901ZM180.078 226.901C180.704 226.383 181.332 225.772 181.96 225.064C184.453 222.253 186.783 218.078 188.778 212.758C192.763 202.132 195.266 187.326 195.266 170.879C195.266 154.432 192.763 139.626 188.778 128.999C186.783 123.679 184.453 119.505 181.96 116.694C181.332 115.985 180.704 115.374 180.078 114.856C185.668 123.631 189.626 145.406 189.626 170.879C189.626 196.351 185.668 218.126 180.078 226.901ZM154.998 212.578C158.051 218.685 161.657 223.227 165.532 225.998C157.58 216.696 152.026 195.517 152.026 170.879C152.026 146.24 157.58 125.061 165.532 115.76C161.657 118.531 158.051 123.073 154.998 129.18C149.71 139.754 146.386 154.495 146.386 170.879C146.386 187.263 149.71 202.003 154.998 212.578ZM194.174 212.578C191.121 218.685 187.515 223.227 183.64 225.998C191.592 216.696 197.146 195.517 197.146 170.879C197.146 146.24 191.592 125.061 183.64 115.76C187.515 118.531 191.121 123.073 194.174 129.18C199.461 139.754 202.786 154.495 202.786 170.879C202.786 187.263 199.461 202.003 194.174 212.578ZM161.561 225.122C157.108 222.255 153.04 217.938 149.593 212.422C143.003 201.878 138.866 187.195 138.866 170.879C138.866 154.562 143.003 139.879 149.593 129.336C153.04 123.82 157.108 119.503 161.561 116.636C151.47 126.345 144.506 146.985 144.506 170.879C144.506 194.772 151.47 215.412 161.561 225.122ZM187.611 225.122C192.063 222.255 196.131 217.938 199.579 212.422C206.168 201.878 210.306 187.195 210.306 170.879C210.306 154.562 206.168 139.879 199.579 129.336C196.131 123.82 192.063 119.503 187.611 116.636C197.701 126.345 204.666 146.985 204.666 170.879C204.666 194.772 197.701 215.412 187.611 225.122ZM144.185 212.29C147.949 217.309 152.365 221.375 157.226 224.257C145.198 214.222 136.986 194.085 136.986 170.879C136.986 147.673 145.198 127.535 157.226 117.501C152.365 120.382 147.949 124.449 144.185 129.467C136.287 139.998 131.346 154.633 131.346 170.879C131.346 187.124 136.287 201.759 144.185 212.29ZM204.986 212.29C201.223 217.309 196.807 221.375 191.945 224.257C203.974 214.222 212.186 194.085 212.186 170.879C212.186 147.673 203.974 127.535 191.945 117.501C196.807 120.382 201.223 124.449 204.986 129.467C212.885 139.998 217.826 154.633 217.826 170.879C217.826 187.124 212.885 201.759 204.986 212.29ZM152.518 223.364C135.609 213.972 123.826 194.115 123.826 170.879C123.826 147.643 135.609 127.786 152.517 118.393C138.76 128.699 129.466 148.341 129.466 170.879C129.466 193.416 138.76 213.059 152.518 223.364ZM196.654 223.364C213.563 213.972 225.346 194.115 225.346 170.879C225.346 147.643 213.563 127.785 196.654 118.393C210.411 128.699 219.706 148.342 219.706 170.879C219.706 193.416 210.411 213.059 196.654 223.364ZM116.306 170.879C116.306 193.341 129.014 212.836 147.633 222.565C132.248 212.064 121.946 192.847 121.946 170.879C121.946 148.911 132.248 129.693 147.633 119.192C129.014 128.921 116.306 148.416 116.306 170.879ZM232.866 170.879C232.866 193.341 220.158 212.836 201.539 222.565C216.923 212.064 227.226 192.847 227.226 170.879C227.226 148.911 216.923 129.693 201.539 119.192C220.158 128.921 232.866 148.416 232.866 170.879ZM178.038 213.185C179.386 202.397 180.226 187.439 180.226 170.879C180.226 154.319 179.386 139.36 178.038 128.572C177.362 123.165 176.567 118.878 175.71 115.979C175.648 115.77 175.587 115.571 175.526 115.381V226.377C175.587 226.187 175.648 225.987 175.71 225.778C176.567 222.879 177.362 218.592 178.038 213.185ZM173.646 115.381V226.377C173.585 226.187 173.523 225.987 173.462 225.778C172.605 222.879 171.81 218.592 171.134 213.185C169.785 202.397 168.946 187.439 168.946 170.879C168.946 154.319 169.785 139.36 171.134 128.572C171.81 123.165 172.605 118.878 173.462 115.979C173.523 115.77 173.585 115.571 173.646 115.381Z" fill="#4705ED"/>
<path fill-rule="evenodd" clip-rule="evenodd" d="M234.746 170.879C234.746 137.653 207.811 110.719 174.586 110.719C141.36 110.719 114.426 137.653 114.426 170.879C114.426 204.104 141.36 231.039 174.586 231.039C207.811 231.039 234.746 204.104 234.746 170.879ZM167.066 170.879C167.066 197.28 169.192 219.709 172.149 227.809C171.59 227.23 170.987 226.432 170.35 225.354C168.683 222.533 167.116 218.326 165.775 212.962C163.1 202.264 161.426 187.384 161.426 170.879C161.426 154.373 163.1 139.494 165.775 128.795C167.116 123.431 168.683 119.224 170.35 116.403C170.987 115.326 171.59 114.527 172.149 113.948C169.192 122.048 167.066 144.477 167.066 170.879ZM178.822 225.354C178.185 226.432 177.581 227.23 177.023 227.809C179.98 219.709 182.106 197.28 182.106 170.879C182.106 144.477 179.98 122.048 177.023 113.948C177.581 114.527 178.185 115.326 178.822 116.403C180.489 119.224 182.056 123.431 183.397 128.795C186.071 139.494 187.746 154.373 187.746 170.879C187.746 187.384 186.071 202.264 183.397 212.962C182.056 218.326 180.489 222.533 178.822 225.354ZM169.094 226.901C168.467 226.383 167.839 225.772 167.211 225.064C164.719 222.253 162.389 218.078 160.394 212.758C156.409 202.132 153.906 187.326 153.906 170.879C153.906 154.432 156.409 139.626 160.394 128.999C162.389 123.679 164.719 119.505 167.211 116.694C167.839 115.985 168.467 115.374 169.094 114.856C163.504 123.631 159.546 145.406 159.546 170.879C159.546 196.351 163.504 218.126 169.094 226.901ZM180.078 226.901C180.704 226.383 181.332 225.772 181.96 225.064C184.453 222.253 186.783 218.078 188.778 212.758C192.763 202.132 195.266 187.326 195.266 170.879C195.266 154.432 192.763 139.626 188.778 128.999C186.783 123.679 184.453 119.505 181.96 116.694C181.332 115.985 180.704 115.374 180.078 114.856C185.668 123.631 189.626 145.406 189.626 170.879C189.626 196.351 185.668 218.126 180.078 226.901ZM154.998 212.578C158.051 218.685 161.657 223.227 165.532 225.998C157.58 216.696 152.026 195.517 152.026 170.879C152.026 146.24 157.58 125.061 165.532 115.76C161.657 118.531 158.051 123.073 154.998 129.18C149.71 139.754 146.386 154.495 146.386 170.879C146.386 187.263 149.71 202.003 154.998 212.578ZM194.174 212.578C191.121 218.685 187.515 223.227 183.64 225.998C191.592 216.696 197.146 195.517 197.146 170.879C197.146 146.24 191.592 125.061 183.64 115.76C187.515 118.531 191.121 123.073 194.174 129.18C199.461 139.754 202.786 154.495 202.786 170.879C202.786 187.263 199.461 202.003 194.174 212.578ZM161.561 225.122C157.108 222.255 153.04 217.938 149.593 212.422C143.003 201.878 138.866 187.195 138.866 170.879C138.866 154.562 143.003 139.879 149.593 129.336C153.04 123.82 157.108 119.503 161.561 116.636C151.47 126.345 144.506 146.985 144.506 170.879C144.506 194.772 151.47 215.412 161.561 225.122ZM187.611 225.122C192.063 222.255 196.131 217.938 199.579 212.422C206.168 201.878 210.306 187.195 210.306 170.879C210.306 154.562 206.168 139.879 199.579 129.336C196.131 123.82 192.063 119.503 187.611 116.636C197.701 126.345 204.666 146.985 204.666 170.879C204.666 194.772 197.701 215.412 187.611 225.122ZM144.185 212.29C147.949 217.309 152.365 221.375 157.226 224.257C145.198 214.222 136.986 194.085 136.986 170.879C136.986 147.673 145.198 127.535 157.226 117.501C152.365 120.382 147.949 124.449 144.185 129.467C136.287 139.998 131.346 154.633 131.346 170.879C131.346 187.124 136.287 201.759 144.185 212.29ZM204.986 212.29C201.223 217.309 196.807 221.375 191.945 224.257C203.974 214.222 212.186 194.085 212.186 170.879C212.186 147.673 203.974 127.535 191.945 117.501C196.807 120.382 201.223 124.449 204.986 129.467C212.885 139.998 217.826 154.633 217.826 170.879C217.826 187.124 212.885 201.759 204.986 212.29ZM152.518 223.364C135.609 213.972 123.826 194.115 123.826 170.879C123.826 147.643 135.609 127.786 152.517 118.393C138.76 128.699 129.466 148.341 129.466 170.879C129.466 193.416 138.76 213.059 152.518 223.364ZM196.654 223.364C213.563 213.972 225.346 194.115 225.346 170.879C225.346 147.643 213.563 127.785 196.654 118.393C210.411 128.699 219.706 148.342 219.706 170.879C219.706 193.416 210.411 213.059 196.654 223.364ZM116.306 170.879C116.306 193.341 129.014 212.836 147.633 222.565C132.248 212.064 121.946 192.847 121.946 170.879C121.946 148.911 132.248 129.693 147.633 119.192C129.014 128.921 116.306 148.416 116.306 170.879ZM232.866 170.879C232.866 193.341 220.158 212.836 201.539 222.565C216.923 212.064 227.226 192.847 227.226 170.879C227.226 148.911 216.923 129.693 201.539 119.192C220.158 128.921 232.866 148.416 232.866 170.879ZM178.038 213.185C179.386 202.397 180.226 187.439 180.226 170.879C180.226 154.319 179.386 139.36 178.038 128.572C177.362 123.165 176.567 118.878 175.71 115.979C175.648 115.77 175.587 115.571 175.526 115.381V226.377C175.587 226.187 175.648 225.987 175.71 225.778C176.567 222.879 177.362 218.592 178.038 213.185ZM173.646 115.381V226.377C173.585 226.187 173.523 225.987 173.462 225.778C172.605 222.879 171.81 218.592 171.134 213.185C169.785 202.397 168.946 187.439 168.946 170.879C168.946 154.319 169.785 139.36 171.134 128.572C171.81 123.165 172.605 118.878 173.462 115.979C173.523 115.77 173.585 115.571 173.646 115.381Z" stroke="#4705ED" stroke-width="1.88" mask="url(#path-3-outside-1_266_936)"/>
<path d="M1300.72 91.0977C1308.43 91.0977 1315.71 92.6836 1322.59 95.8555C1329.46 98.9518 1335.27 103.143 1340.03 108.43C1344.86 113.641 1348.68 119.758 1351.47 126.781C1354.27 133.805 1355.66 141.092 1355.66 148.645C1355.66 156.197 1354.27 163.484 1351.47 170.508C1348.68 177.456 1344.86 183.535 1340.03 188.746C1335.27 193.957 1329.46 198.148 1322.59 201.32C1315.71 204.417 1308.43 205.965 1300.72 205.965H1255.75V236.777H1219.27V91.0977H1300.72ZM1300.72 169.488C1306.08 169.488 1310.5 167.374 1313.98 163.145C1317.53 158.84 1319.3 154.007 1319.3 148.645C1319.3 143.283 1317.53 138.411 1313.98 134.031C1310.43 129.651 1306.01 127.461 1300.72 127.461H1255.75V169.488H1300.72Z" fill="#4705ED"/>
<path d="M1099.19 181.836C1097.23 181.836 1095.53 182.591 1094.09 184.102C1092.73 185.536 1092.05 187.236 1092.05 189.199C1092.05 190.71 1092.09 191.993 1092.17 193.051C1092.32 194.033 1092.62 195.128 1093.07 196.336C1093.53 197.469 1094.24 198.337 1095.23 198.941C1096.28 199.546 1097.61 199.848 1099.19 199.848H1150.73V236.777H1099.19C1087.11 236.777 1076.72 232.473 1068.04 223.863C1059.43 215.178 1055.12 204.794 1055.12 192.711V189.199C1055.12 177.04 1059.43 166.618 1068.04 157.934C1076.72 149.249 1087.11 144.906 1099.19 144.906H1141.45C1140.69 142.565 1140.05 140.715 1139.52 139.355C1138.99 137.996 1138.2 136.41 1137.14 134.598C1136.16 132.785 1135.1 131.388 1133.97 130.406C1132.91 129.424 1131.51 128.594 1129.78 127.914C1128.04 127.159 1126.11 126.781 1124 126.781H1067.7V89.9648H1124C1134.88 89.9648 1145.07 93.7409 1154.59 101.293C1164.1 108.77 1170.71 117.757 1174.41 128.254L1212.47 236.777H1173.5L1154.25 181.836H1099.19Z" fill="#4705ED"/>
<path d="M988.168 86C999.043 86 1009.09 88.681 1018.3 94.043C1027.51 99.4049 1034.8 106.693 1040.16 115.906C1045.53 125.12 1048.21 135.164 1048.21 146.039V236.777H1011.39V146.039C1011.39 139.62 1009.12 134.145 1004.59 129.613C1000.06 125.082 994.587 122.816 988.168 122.816C981.749 122.816 976.311 125.082 971.855 129.613C967.4 134.145 965.172 139.62 965.172 146.039V236.777H928.242V146.039C928.242 139.62 925.977 134.145 921.445 129.613C916.99 125.082 911.552 122.816 905.133 122.816C898.714 122.816 893.276 125.082 888.82 129.613C884.365 134.145 882.137 139.62 882.137 146.039V236.777H845.207V146.039C845.207 129.5 851.06 115.378 862.766 103.672C874.547 91.8906 888.669 86 905.133 86C913.062 86 920.577 87.5104 927.676 90.5312C934.85 93.4766 941.156 97.5924 946.594 102.879C952.107 97.5924 958.45 93.4766 965.625 90.5312C972.799 87.5104 980.314 86 988.168 86Z" fill="#4705ED"/>
<path d="M799.438 139.809L765.793 236.777H727.277L765.34 127.461C768.889 117.115 775.346 108.279 784.711 100.953C794.151 93.6276 804.233 89.9648 814.957 89.9648H838.18V126.328H814.957C810.728 126.328 807.518 127.423 805.328 129.613C803.138 131.803 801.174 135.202 799.438 139.809Z" fill="#4705ED"/>
<path d="M607.195 181.836C605.232 181.836 603.533 182.591 602.098 184.102C600.738 185.536 600.059 187.236 600.059 189.199C600.059 190.71 600.096 191.993 600.172 193.051C600.323 194.033 600.625 195.128 601.078 196.336C601.531 197.469 602.249 198.337 603.23 198.941C604.288 199.546 605.609 199.848 607.195 199.848H658.738V236.777H607.195C595.112 236.777 584.728 232.473 576.043 223.863C567.434 215.178 563.129 204.794 563.129 192.711V189.199C563.129 177.04 567.434 166.618 576.043 157.934C584.728 149.249 595.112 144.906 607.195 144.906H649.449C648.694 142.565 648.052 140.715 647.523 139.355C646.995 137.996 646.202 136.41 645.145 134.598C644.163 132.785 643.105 131.388 641.973 130.406C640.915 129.424 639.518 128.594 637.781 127.914C636.044 127.159 634.118 126.781 632.004 126.781H575.703V89.9648H632.004C642.879 89.9648 653.074 93.7409 662.59 101.293C672.105 108.77 678.714 117.757 682.414 128.254L720.477 236.777H681.508L662.25 181.836H607.195Z" fill="#4705ED"/>
<path d="M556.102 126.781H504.672C495.232 126.781 487.378 130.482 481.109 137.883C474.841 145.284 471.707 153.818 471.707 163.484V164.391H540.129V201.32H471.707V236.777H434.777V163.484C434.777 150.57 437.798 138.525 443.84 127.348C449.882 116.095 458.264 107.07 468.988 100.273C479.788 93.401 491.682 89.9648 504.672 89.9648H556.102V126.781Z" fill="#4705ED"/>
</svg>
