<svg width="760" height="760" viewBox="0 0 760 760" fill="none" xmlns="http://www.w3.org/2000/svg">
<rect width="760" height="760" fill="white"/>
<path d="M200.548 130H552.161V200.968L652.161 200.968L631.193 271.935H613.452V559.032C622.359 559.032 629.581 566.253 629.581 575.161V594.516H632.806C641.714 594.516 648.935 601.737 648.935 610.645V630H552.161H468.29H290.871H252.161H200.548H110.226V610.645C110.226 601.737 117.447 594.516 126.355 594.516H129.581V575.161C129.581 566.253 136.802 559.032 145.71 559.032V271.935H127.968L107 200.968L200.548 200.968V130Z" fill="#4705ED"/>
<path d="M178.484 399.664C177.3 398.56 176.362 397.662 175.679 397C176.362 396.338 177.3 395.44 178.484 394.336C181.218 391.785 185.257 388.134 190.462 383.751C200.875 374.982 215.947 363.286 234.57 351.592C271.845 328.185 323.191 304.88 379.8 304.88C436.409 304.88 487.755 328.185 525.03 351.592C543.653 363.286 558.725 374.982 569.138 383.751C574.343 388.134 578.382 391.785 581.116 394.336C582.3 395.44 583.238 396.338 583.921 397C583.238 397.662 582.3 398.56 581.116 399.664C578.382 402.215 574.343 405.866 569.138 410.249C558.725 419.018 543.653 430.714 525.03 442.408C487.755 465.815 436.409 489.12 379.8 489.12C323.191 489.12 271.845 465.815 234.57 442.408C215.947 430.714 200.875 419.018 190.462 410.249C185.257 405.866 181.218 402.215 178.484 399.664Z" fill="white" stroke="white" stroke-width="3.76"/>
<mask id="path-3-outside-1_257_1059" maskUnits="userSpaceOnUse" x="284.797" y="302" width="190" height="190" fill="black">
<rect fill="white" x="284.797" y="302" width="190" height="190"/>
<path fill-rule="evenodd" clip-rule="evenodd" d="M473.797 397C473.797 345.085 431.712 303 379.797 303C327.882 303 285.797 345.085 285.797 397C285.797 448.915 327.882 491 379.797 491C431.712 491 473.797 448.915 473.797 397ZM368.047 397C368.047 438.252 371.369 473.298 375.989 485.954C375.116 485.049 374.173 483.802 373.178 482.118C370.573 477.71 368.125 471.136 366.03 462.756C361.851 446.039 359.234 422.79 359.234 397C359.234 371.21 361.851 347.961 366.03 331.244C368.125 322.864 370.573 316.29 373.178 311.882C374.173 310.198 375.116 308.951 375.989 308.046C371.368 320.702 368.047 355.748 368.047 397ZM386.415 482.118C385.42 483.802 384.477 485.049 383.605 485.954C388.225 473.298 391.547 438.252 391.547 397C391.547 355.748 388.225 320.702 383.605 308.046C384.477 308.951 385.42 310.198 386.415 311.882C389.021 316.29 391.469 322.864 393.564 331.244C397.743 347.961 400.359 371.21 400.359 397C400.359 422.79 397.743 446.039 393.564 462.756C391.469 471.136 389.021 477.71 386.415 482.118ZM371.215 484.536C370.237 483.726 369.255 482.771 368.274 481.664C364.38 477.272 360.739 470.749 357.622 462.437C351.395 445.833 347.484 422.698 347.484 397C347.484 371.302 351.395 348.167 357.622 331.563C360.739 323.251 364.38 316.728 368.274 312.336C369.255 311.229 370.237 310.274 371.215 309.464C362.481 323.175 356.297 357.199 356.297 397C356.297 436.801 362.481 470.825 371.215 484.536ZM388.378 484.536C389.357 483.726 390.339 482.771 391.32 481.664C395.214 477.272 398.855 470.749 401.972 462.437C408.198 445.833 412.109 422.698 412.109 397C412.109 371.302 408.198 348.167 401.972 331.563C398.855 323.251 395.214 316.728 391.32 312.336C390.339 311.229 389.357 310.274 388.378 309.464C397.113 323.175 403.297 357.199 403.297 397C403.297 436.801 397.113 470.825 388.378 484.536ZM349.19 462.154C353.961 471.697 359.595 478.793 365.65 483.124C353.225 468.59 344.547 435.498 344.547 397C344.547 358.502 353.225 325.41 365.65 310.876C359.595 315.207 353.961 322.303 349.19 331.846C340.929 348.368 335.734 371.4 335.734 397C335.734 422.6 340.929 445.632 349.19 462.154ZM410.404 462.154C405.632 471.697 399.999 478.793 393.944 483.124C406.368 468.59 415.047 435.498 415.047 397C415.047 358.502 406.368 325.41 393.944 310.876C399.999 315.207 405.632 322.303 410.404 331.846C418.665 348.368 423.859 371.4 423.859 397C423.859 422.6 418.665 445.632 410.404 462.154ZM359.445 481.755C352.488 477.275 346.132 470.53 340.745 461.911C330.449 445.437 323.984 422.495 323.984 397C323.984 371.505 330.449 348.563 340.745 332.089C346.132 323.47 352.488 316.725 359.445 312.245C343.679 327.417 332.797 359.667 332.797 397C332.797 434.333 343.679 466.583 359.445 481.755ZM400.148 481.755C407.105 477.275 413.462 470.53 418.848 461.911C429.145 445.437 435.609 422.495 435.609 397C435.609 371.505 429.145 348.563 418.848 332.089C413.462 323.47 407.105 316.725 400.148 312.245C415.915 327.417 426.797 359.667 426.797 397C426.797 434.333 415.915 466.583 400.148 481.755ZM332.296 461.706C338.177 469.547 345.076 475.901 352.672 480.403C333.878 464.724 321.047 433.26 321.047 397C321.047 360.74 333.878 329.276 352.672 313.597C345.076 318.099 338.177 324.453 332.296 332.294C319.955 348.75 312.234 371.617 312.234 397C312.234 422.383 319.955 445.25 332.296 461.706ZM427.298 461.706C421.417 469.547 414.517 475.901 406.921 480.403C425.715 464.724 438.547 433.26 438.547 397C438.547 360.74 425.715 329.276 406.921 313.597C414.517 318.099 421.417 324.453 427.298 332.294C439.639 348.75 447.359 371.617 447.359 397C447.359 422.383 439.639 445.25 427.298 461.706ZM345.315 479.009C318.896 464.333 300.484 433.306 300.484 397C300.484 360.694 318.896 329.667 345.315 314.992C323.82 331.094 309.297 361.786 309.297 397C309.297 432.214 323.82 462.906 345.315 479.009ZM414.279 479.009C440.698 464.333 459.109 433.306 459.109 397C459.109 360.694 440.698 329.667 414.279 314.991C435.774 331.094 450.297 361.786 450.297 397C450.297 432.214 435.774 462.906 414.279 479.009ZM288.734 397C288.734 432.098 308.591 462.558 337.683 477.76C313.645 461.352 297.547 431.325 297.547 397C297.547 362.675 313.645 332.648 337.683 316.24C308.591 331.442 288.734 361.902 288.734 397ZM470.859 397C470.859 432.098 451.003 462.558 421.911 477.76C445.949 461.352 462.047 431.325 462.047 397C462.047 362.675 445.949 332.648 421.911 316.24C451.003 331.442 470.859 361.902 470.859 397ZM385.191 463.104C387.298 446.248 388.609 422.875 388.609 397C388.609 371.125 387.298 347.752 385.191 330.896C384.134 322.448 382.892 315.749 381.553 311.22C381.457 310.893 381.361 310.581 381.266 310.284V483.716C381.361 483.419 381.457 483.107 381.553 482.78C382.892 478.251 384.134 471.552 385.191 463.104ZM378.328 310.284V483.716C378.233 483.419 378.137 483.107 378.04 482.78C376.702 478.251 375.459 471.552 374.403 463.104C372.296 446.248 370.984 422.875 370.984 397C370.984 371.125 372.296 347.752 374.403 330.896C375.459 322.448 376.702 315.749 378.04 311.22C378.137 310.893 378.233 310.581 378.328 310.284Z"/>
</mask>
<path fill-rule="evenodd" clip-rule="evenodd" d="M473.797 397C473.797 345.085 431.712 303 379.797 303C327.882 303 285.797 345.085 285.797 397C285.797 448.915 327.882 491 379.797 491C431.712 491 473.797 448.915 473.797 397ZM368.047 397C368.047 438.252 371.369 473.298 375.989 485.954C375.116 485.049 374.173 483.802 373.178 482.118C370.573 477.71 368.125 471.136 366.03 462.756C361.851 446.039 359.234 422.79 359.234 397C359.234 371.21 361.851 347.961 366.03 331.244C368.125 322.864 370.573 316.29 373.178 311.882C374.173 310.198 375.116 308.951 375.989 308.046C371.368 320.702 368.047 355.748 368.047 397ZM386.415 482.118C385.42 483.802 384.477 485.049 383.605 485.954C388.225 473.298 391.547 438.252 391.547 397C391.547 355.748 388.225 320.702 383.605 308.046C384.477 308.951 385.42 310.198 386.415 311.882C389.021 316.29 391.469 322.864 393.564 331.244C397.743 347.961 400.359 371.21 400.359 397C400.359 422.79 397.743 446.039 393.564 462.756C391.469 471.136 389.021 477.71 386.415 482.118ZM371.215 484.536C370.237 483.726 369.255 482.771 368.274 481.664C364.38 477.272 360.739 470.749 357.622 462.437C351.395 445.833 347.484 422.698 347.484 397C347.484 371.302 351.395 348.167 357.622 331.563C360.739 323.251 364.38 316.728 368.274 312.336C369.255 311.229 370.237 310.274 371.215 309.464C362.481 323.175 356.297 357.199 356.297 397C356.297 436.801 362.481 470.825 371.215 484.536ZM388.378 484.536C389.357 483.726 390.339 482.771 391.32 481.664C395.214 477.272 398.855 470.749 401.972 462.437C408.198 445.833 412.109 422.698 412.109 397C412.109 371.302 408.198 348.167 401.972 331.563C398.855 323.251 395.214 316.728 391.32 312.336C390.339 311.229 389.357 310.274 388.378 309.464C397.113 323.175 403.297 357.199 403.297 397C403.297 436.801 397.113 470.825 388.378 484.536ZM349.19 462.154C353.961 471.697 359.595 478.793 365.65 483.124C353.225 468.59 344.547 435.498 344.547 397C344.547 358.502 353.225 325.41 365.65 310.876C359.595 315.207 353.961 322.303 349.19 331.846C340.929 348.368 335.734 371.4 335.734 397C335.734 422.6 340.929 445.632 349.19 462.154ZM410.404 462.154C405.632 471.697 399.999 478.793 393.944 483.124C406.368 468.59 415.047 435.498 415.047 397C415.047 358.502 406.368 325.41 393.944 310.876C399.999 315.207 405.632 322.303 410.404 331.846C418.665 348.368 423.859 371.4 423.859 397C423.859 422.6 418.665 445.632 410.404 462.154ZM359.445 481.755C352.488 477.275 346.132 470.53 340.745 461.911C330.449 445.437 323.984 422.495 323.984 397C323.984 371.505 330.449 348.563 340.745 332.089C346.132 323.47 352.488 316.725 359.445 312.245C343.679 327.417 332.797 359.667 332.797 397C332.797 434.333 343.679 466.583 359.445 481.755ZM400.148 481.755C407.105 477.275 413.462 470.53 418.848 461.911C429.145 445.437 435.609 422.495 435.609 397C435.609 371.505 429.145 348.563 418.848 332.089C413.462 323.47 407.105 316.725 400.148 312.245C415.915 327.417 426.797 359.667 426.797 397C426.797 434.333 415.915 466.583 400.148 481.755ZM332.296 461.706C338.177 469.547 345.076 475.901 352.672 480.403C333.878 464.724 321.047 433.26 321.047 397C321.047 360.74 333.878 329.276 352.672 313.597C345.076 318.099 338.177 324.453 332.296 332.294C319.955 348.75 312.234 371.617 312.234 397C312.234 422.383 319.955 445.25 332.296 461.706ZM427.298 461.706C421.417 469.547 414.517 475.901 406.921 480.403C425.715 464.724 438.547 433.26 438.547 397C438.547 360.74 425.715 329.276 406.921 313.597C414.517 318.099 421.417 324.453 427.298 332.294C439.639 348.75 447.359 371.617 447.359 397C447.359 422.383 439.639 445.25 427.298 461.706ZM345.315 479.009C318.896 464.333 300.484 433.306 300.484 397C300.484 360.694 318.896 329.667 345.315 314.992C323.82 331.094 309.297 361.786 309.297 397C309.297 432.214 323.82 462.906 345.315 479.009ZM414.279 479.009C440.698 464.333 459.109 433.306 459.109 397C459.109 360.694 440.698 329.667 414.279 314.991C435.774 331.094 450.297 361.786 450.297 397C450.297 432.214 435.774 462.906 414.279 479.009ZM288.734 397C288.734 432.098 308.591 462.558 337.683 477.76C313.645 461.352 297.547 431.325 297.547 397C297.547 362.675 313.645 332.648 337.683 316.24C308.591 331.442 288.734 361.902 288.734 397ZM470.859 397C470.859 432.098 451.003 462.558 421.911 477.76C445.949 461.352 462.047 431.325 462.047 397C462.047 362.675 445.949 332.648 421.911 316.24C451.003 331.442 470.859 361.902 470.859 397ZM385.191 463.104C387.298 446.248 388.609 422.875 388.609 397C388.609 371.125 387.298 347.752 385.191 330.896C384.134 322.448 382.892 315.749 381.553 311.22C381.457 310.893 381.361 310.581 381.266 310.284V483.716C381.361 483.419 381.457 483.107 381.553 482.78C382.892 478.251 384.134 471.552 385.191 463.104ZM378.328 310.284V483.716C378.233 483.419 378.137 483.107 378.04 482.78C376.702 478.251 375.459 471.552 374.403 463.104C372.296 446.248 370.984 422.875 370.984 397C370.984 371.125 372.296 347.752 374.403 330.896C375.459 322.448 376.702 315.749 378.04 311.22C378.137 310.893 378.233 310.581 378.328 310.284Z" fill="#4705ED"/>
<path fill-rule="evenodd" clip-rule="evenodd" d="M473.797 397C473.797 345.085 431.712 303 379.797 303C327.882 303 285.797 345.085 285.797 397C285.797 448.915 327.882 491 379.797 491C431.712 491 473.797 448.915 473.797 397ZM368.047 397C368.047 438.252 371.369 473.298 375.989 485.954C375.116 485.049 374.173 483.802 373.178 482.118C370.573 477.71 368.125 471.136 366.03 462.756C361.851 446.039 359.234 422.79 359.234 397C359.234 371.21 361.851 347.961 366.03 331.244C368.125 322.864 370.573 316.29 373.178 311.882C374.173 310.198 375.116 308.951 375.989 308.046C371.368 320.702 368.047 355.748 368.047 397ZM386.415 482.118C385.42 483.802 384.477 485.049 383.605 485.954C388.225 473.298 391.547 438.252 391.547 397C391.547 355.748 388.225 320.702 383.605 308.046C384.477 308.951 385.42 310.198 386.415 311.882C389.021 316.29 391.469 322.864 393.564 331.244C397.743 347.961 400.359 371.21 400.359 397C400.359 422.79 397.743 446.039 393.564 462.756C391.469 471.136 389.021 477.71 386.415 482.118ZM371.215 484.536C370.237 483.726 369.255 482.771 368.274 481.664C364.38 477.272 360.739 470.749 357.622 462.437C351.395 445.833 347.484 422.698 347.484 397C347.484 371.302 351.395 348.167 357.622 331.563C360.739 323.251 364.38 316.728 368.274 312.336C369.255 311.229 370.237 310.274 371.215 309.464C362.481 323.175 356.297 357.199 356.297 397C356.297 436.801 362.481 470.825 371.215 484.536ZM388.378 484.536C389.357 483.726 390.339 482.771 391.32 481.664C395.214 477.272 398.855 470.749 401.972 462.437C408.198 445.833 412.109 422.698 412.109 397C412.109 371.302 408.198 348.167 401.972 331.563C398.855 323.251 395.214 316.728 391.32 312.336C390.339 311.229 389.357 310.274 388.378 309.464C397.113 323.175 403.297 357.199 403.297 397C403.297 436.801 397.113 470.825 388.378 484.536ZM349.19 462.154C353.961 471.697 359.595 478.793 365.65 483.124C353.225 468.59 344.547 435.498 344.547 397C344.547 358.502 353.225 325.41 365.65 310.876C359.595 315.207 353.961 322.303 349.19 331.846C340.929 348.368 335.734 371.4 335.734 397C335.734 422.6 340.929 445.632 349.19 462.154ZM410.404 462.154C405.632 471.697 399.999 478.793 393.944 483.124C406.368 468.59 415.047 435.498 415.047 397C415.047 358.502 406.368 325.41 393.944 310.876C399.999 315.207 405.632 322.303 410.404 331.846C418.665 348.368 423.859 371.4 423.859 397C423.859 422.6 418.665 445.632 410.404 462.154ZM359.445 481.755C352.488 477.275 346.132 470.53 340.745 461.911C330.449 445.437 323.984 422.495 323.984 397C323.984 371.505 330.449 348.563 340.745 332.089C346.132 323.47 352.488 316.725 359.445 312.245C343.679 327.417 332.797 359.667 332.797 397C332.797 434.333 343.679 466.583 359.445 481.755ZM400.148 481.755C407.105 477.275 413.462 470.53 418.848 461.911C429.145 445.437 435.609 422.495 435.609 397C435.609 371.505 429.145 348.563 418.848 332.089C413.462 323.47 407.105 316.725 400.148 312.245C415.915 327.417 426.797 359.667 426.797 397C426.797 434.333 415.915 466.583 400.148 481.755ZM332.296 461.706C338.177 469.547 345.076 475.901 352.672 480.403C333.878 464.724 321.047 433.26 321.047 397C321.047 360.74 333.878 329.276 352.672 313.597C345.076 318.099 338.177 324.453 332.296 332.294C319.955 348.75 312.234 371.617 312.234 397C312.234 422.383 319.955 445.25 332.296 461.706ZM427.298 461.706C421.417 469.547 414.517 475.901 406.921 480.403C425.715 464.724 438.547 433.26 438.547 397C438.547 360.74 425.715 329.276 406.921 313.597C414.517 318.099 421.417 324.453 427.298 332.294C439.639 348.75 447.359 371.617 447.359 397C447.359 422.383 439.639 445.25 427.298 461.706ZM345.315 479.009C318.896 464.333 300.484 433.306 300.484 397C300.484 360.694 318.896 329.667 345.315 314.992C323.82 331.094 309.297 361.786 309.297 397C309.297 432.214 323.82 462.906 345.315 479.009ZM414.279 479.009C440.698 464.333 459.109 433.306 459.109 397C459.109 360.694 440.698 329.667 414.279 314.991C435.774 331.094 450.297 361.786 450.297 397C450.297 432.214 435.774 462.906 414.279 479.009ZM288.734 397C288.734 432.098 308.591 462.558 337.683 477.76C313.645 461.352 297.547 431.325 297.547 397C297.547 362.675 313.645 332.648 337.683 316.24C308.591 331.442 288.734 361.902 288.734 397ZM470.859 397C470.859 432.098 451.003 462.558 421.911 477.76C445.949 461.352 462.047 431.325 462.047 397C462.047 362.675 445.949 332.648 421.911 316.24C451.003 331.442 470.859 361.902 470.859 397ZM385.191 463.104C387.298 446.248 388.609 422.875 388.609 397C388.609 371.125 387.298 347.752 385.191 330.896C384.134 322.448 382.892 315.749 381.553 311.22C381.457 310.893 381.361 310.581 381.266 310.284V483.716C381.361 483.419 381.457 483.107 381.553 482.78C382.892 478.251 384.134 471.552 385.191 463.104ZM378.328 310.284V483.716C378.233 483.419 378.137 483.107 378.04 482.78C376.702 478.251 375.459 471.552 374.403 463.104C372.296 446.248 370.984 422.875 370.984 397C370.984 371.125 372.296 347.752 374.403 330.896C375.459 322.448 376.702 315.749 378.04 311.22C378.137 310.893 378.233 310.581 378.328 310.284Z" stroke="#4705ED" stroke-width="1.88" mask="url(#path-3-outside-1_257_1059)"/>
</svg>
